<svg width="71" height="70" viewBox="0 0 71 70" fill="none" xmlns="http://www.w3.org/2000/svg">
<g id="pepicons-print:wifi">
<g id="Group">
<g id="Group_2" opacity="0.2">
<path id="Vector" d="M51.761 42.7866C52.0916 43.1021 52.3565 43.48 52.5404 43.8983C52.7242 44.3167 52.8235 44.7673 52.8323 45.2242C52.8412 45.6811 52.7596 46.1353 52.5921 46.5605C52.4246 46.9857 52.1746 47.3735 51.8566 47.7017C51.5385 48.0298 51.1586 48.2917 50.7388 48.4723C50.319 48.653 49.8677 48.7487 49.4107 48.754C48.9537 48.7594 48.5002 48.6742 48.0763 48.5035C47.6525 48.3327 47.2666 48.0797 46.9409 47.7591C46.8267 47.6512 46.7089 47.5473 46.5877 47.4475C45.9327 46.9405 45.2055 46.5344 44.4304 46.2424C42.8618 45.6191 40.9677 45.2729 38.9627 45.2729C35.7978 45.2729 32.9618 46.142 31.3378 47.4509C31.2085 47.5525 31.0907 47.6552 30.9846 47.7591C30.6589 48.0797 30.273 48.3327 29.8491 48.5035C29.4252 48.6742 28.9717 48.7594 28.5148 48.754C28.0578 48.7487 27.6064 48.653 27.1866 48.4723C26.7668 48.2917 26.387 48.0298 26.0689 47.7017C25.7508 47.3735 25.5008 46.9857 25.3334 46.5605C25.1659 46.1353 25.0842 45.6811 25.0931 45.2242C25.102 44.7673 25.2012 44.3167 25.3851 43.8983C25.569 43.48 25.8338 43.1021 26.1644 42.7866C26.4276 42.5327 26.7046 42.288 26.9955 42.0525C29.9423 39.6874 34.3088 38.3474 38.9627 38.3474C41.8264 38.3474 44.5862 38.8529 46.9825 39.8017C48.4714 40.3904 49.8046 41.1487 50.93 42.0525C51.2209 42.288 51.4979 42.5327 51.761 42.7866Z" fill="url(#paint0_linear_91_8224)"/>
<path id="Vector_2" d="M60.4768 33.8077C60.8036 34.1302 61.0631 34.5144 61.24 34.9381C61.4169 35.3618 61.5078 35.8165 61.5074 36.2756C61.507 36.7348 61.4153 37.1893 61.2376 37.6127C61.0599 38.036 60.7998 38.4198 60.4724 38.7417C60.1449 39.0636 59.7568 39.3172 59.3304 39.4877C58.9041 39.6582 58.4481 39.7422 57.989 39.7348C57.5299 39.7274 57.0769 39.6288 56.6563 39.4447C56.2356 39.2606 55.8558 38.9947 55.5389 38.6624C55.1964 38.3147 54.8358 37.9853 54.4585 37.6756C53.6256 37.0005 52.7371 36.397 51.8026 35.8715C50.7708 35.2898 49.6911 34.7975 48.5753 34.3998C47.3842 33.9605 46.1604 33.6155 44.9152 33.3679C43.6172 33.0973 42.3014 32.9203 40.9781 32.8381C38.9679 32.7102 36.9501 32.7774 34.9529 33.0389C33.664 33.2111 32.3889 33.4737 31.1369 33.825C29.9524 34.1567 28.7948 34.578 27.6742 35.0854C26.6451 35.5546 25.6561 36.107 24.717 36.7372C24.2865 37.0299 23.8694 37.3418 23.4669 37.6721C23.0896 37.9829 22.729 38.3135 22.3866 38.6624C22.0719 39.0029 21.692 39.2767 21.2695 39.4677C20.847 39.6586 20.3905 39.7627 19.927 39.7739C19.4635 39.7851 19.0025 39.703 18.5713 39.5327C18.1401 39.3624 17.7475 39.1072 17.4168 38.7822C17.0861 38.4573 16.824 38.0693 16.646 37.6412C16.4681 37.2131 16.3779 36.7536 16.3809 36.2899C16.3839 35.8263 16.4799 35.368 16.6633 34.9422C16.8468 34.5164 17.1138 34.1318 17.4487 33.8111C17.9519 33.3033 18.4852 32.8139 19.0485 32.3429C19.6094 31.8789 20.2004 31.4357 20.8214 31.0132C22.0809 30.1557 23.4134 29.4106 24.8036 28.7867C26.2445 28.1331 27.7332 27.5902 29.2567 27.1627C30.8233 26.7231 32.4189 26.3944 34.0318 26.1792C35.666 25.9567 37.3135 25.8457 38.9627 25.8468C40.6118 25.8496 42.2589 25.9595 43.8937 26.1758C45.5077 26.3908 47.1045 26.7194 48.6723 27.1592C50.1946 27.5869 51.6821 28.1298 53.1219 28.7832C54.5083 29.4147 55.8402 30.1594 57.1041 31.0098C57.7274 31.4322 58.3184 31.8755 58.877 32.3395C59.4403 32.8104 59.9736 33.2998 60.4768 33.8077Z" fill="url(#paint1_linear_91_8224)"/>
<path id="Vector_3" d="M67.5131 25.2651C68.0958 25.9535 68.3869 26.8421 68.3245 27.7419C68.262 28.6416 67.851 29.4815 67.1788 30.0829C66.5066 30.6843 65.6263 30.9996 64.7252 30.9619C63.8241 30.9242 62.9732 30.5363 62.3536 29.8809C61.8562 29.3231 61.3291 28.7925 60.7746 28.2915C60.1987 27.7665 59.5978 27.2696 58.974 26.8025C57.6474 25.8226 56.2399 24.9572 54.7667 24.2159C53.1993 23.43 51.5683 22.7779 49.8912 22.2663C48.1461 21.722 46.3607 21.3168 44.5516 21.0544C42.701 20.7834 40.833 20.6492 38.9627 20.6527C37.0924 20.6503 35.2243 20.7857 33.3739 21.0578C31.5661 21.327 29.7812 21.7322 28.0343 22.2698C26.3613 22.7913 24.7322 23.4444 23.1622 24.2228C22.4111 24.5967 21.6774 25.0046 20.9634 25.4451C20.2744 25.8692 19.6042 26.3233 18.955 26.806C18.3312 27.2731 17.7303 27.77 17.1543 28.295C16.5985 28.797 16.0703 29.3287 15.5719 29.8878C14.9567 30.5622 14.1001 30.9665 13.1885 31.0126C12.2768 31.0587 11.3839 30.743 10.7038 30.1341C10.0237 29.5252 9.61155 28.6725 9.55698 27.7613C9.50241 26.8501 9.80983 25.9542 10.4124 25.2685C11.0587 24.5437 11.7513 23.8465 12.49 23.177C13.2195 22.5076 13.9905 21.8693 14.8031 21.2621C15.6134 20.6573 16.4583 20.0848 17.3379 19.5446C19.1223 18.4447 20.9993 17.5027 22.9475 16.7294C24.9529 15.9247 27.02 15.2832 29.1285 14.811C31.2743 14.3237 33.454 14.0008 35.6489 13.8449C38.9581 13.6058 42.2834 13.7277 45.5662 14.2085C47.7258 14.5294 49.858 15.0133 51.9446 15.6559C53.9782 16.2895 55.9582 17.0838 57.8659 18.0314C59.7072 18.9559 61.4658 20.0368 63.1223 21.2621C63.9326 21.8716 64.7048 22.5099 65.4389 23.177C66.173 23.8442 66.8656 24.5414 67.5166 25.2685M45.8882 56.5268C45.8882 58.3635 45.1586 60.1251 43.8598 61.4238C42.561 62.7226 40.7995 63.4523 38.9627 63.4523C37.126 63.4523 35.3645 62.7226 34.0657 61.4238C32.7669 60.1251 32.0372 58.3635 32.0372 56.5268C32.0372 54.69 32.7669 52.9285 34.0657 51.6297C35.3645 50.3309 37.126 49.6013 38.9627 49.6013C40.7995 49.6013 42.561 50.3309 43.8598 51.6297C45.1586 52.9285 45.8882 54.69 45.8882 56.5268Z" fill="url(#paint2_linear_91_8224)"/>
</g>
<path id="Vector_4" d="M47.0933 40.567C47.4188 40.8875 47.6045 41.3237 47.6099 41.7806C47.6152 42.2374 47.4398 42.6778 47.1218 43.0059C46.8038 43.3339 46.369 43.523 45.9122 43.5318C45.4555 43.5407 45.0137 43.3687 44.6832 43.0533C44.5326 42.9077 44.3754 42.769 44.2123 42.6377C43.4185 42.0251 42.5403 41.5305 41.6048 41.1695C39.6563 40.4262 37.5853 40.0561 35.5 40.0788C31.9611 40.0788 28.7442 41.0656 26.7877 42.6377C26.6192 42.7762 26.4622 42.9147 26.3168 43.0533C25.9863 43.3687 25.5445 43.5407 25.0877 43.5318C24.6309 43.523 24.1962 43.3339 23.8782 43.0059C23.5602 42.6778 23.3848 42.2374 23.3901 41.7806C23.3954 41.3237 23.5811 40.8875 23.9067 40.567C24.1306 40.35 24.3684 40.1399 24.62 39.9368C27.2309 37.8384 31.2166 36.616 35.5 36.616C38.149 36.616 40.6941 37.08 42.8826 37.9492C44.2157 38.479 45.3965 39.1473 46.3799 39.9368C46.6316 40.1422 46.8694 40.3523 47.0933 40.567ZM55.7779 31.5604C55.9519 31.7189 56.0919 31.9112 56.1891 32.1256C56.2863 32.3401 56.3388 32.5721 56.3433 32.8074C56.3478 33.0428 56.3042 33.2767 56.2153 33.4946C56.1264 33.7126 55.9939 33.9102 55.826 34.0752C55.6581 34.2403 55.4584 34.3694 55.2389 34.4546C55.0194 34.5398 54.7849 34.5794 54.5496 34.5708C54.3144 34.5623 54.0833 34.5059 53.8706 34.4051C53.6578 34.3042 53.4679 34.1611 53.3124 33.9843C52.9261 33.596 52.5217 33.2262 52.1004 32.8762C51.6573 32.5095 51.1962 32.1651 50.7188 31.8443C49.1568 30.7974 47.4715 29.9472 45.7013 29.3131C44.4303 28.8502 43.1271 28.481 41.8022 28.2084C40.4256 27.9276 39.0315 27.7402 37.6296 27.6475C35.5051 27.5072 33.372 27.578 31.2616 27.8587C29.8917 28.0477 28.5359 28.3276 27.2032 28.6967C25.9365 29.0581 24.6972 29.5094 23.4946 30.0472C22.3769 30.5588 21.3023 31.1598 20.2812 31.8443C19.7964 32.1744 19.3359 32.5184 18.8996 32.8762C18.4702 33.2341 18.0662 33.6034 17.6876 33.9843C17.3603 34.2823 16.9313 34.4436 16.4888 34.4352C16.0463 34.4267 15.6238 34.249 15.3081 33.9387C14.9925 33.6284 14.8077 33.209 14.7917 32.7667C14.7757 32.3243 14.9297 31.8927 15.2221 31.5604C15.6792 31.0941 16.1686 30.6439 16.6903 30.2099C17.2097 29.7805 17.7569 29.3708 18.3317 28.9806C19.5099 28.1775 20.7567 27.48 22.0576 26.8961C23.4163 26.272 24.8233 25.759 26.2648 25.3621C27.7516 24.9383 29.2679 24.6258 30.801 24.4271C32.3585 24.2167 33.9284 24.1126 35.5 24.1155C37.0716 24.1126 38.6415 24.2167 40.1989 24.4271C41.7302 24.6372 43.2456 24.9495 44.7351 25.3621C46.1725 25.7718 47.5786 26.2845 48.9424 26.8961C50.2388 27.4889 51.4848 28.186 52.6683 28.9806C53.2431 29.3731 53.7902 29.7828 54.3096 30.2099C54.8314 30.6439 55.3208 31.0941 55.7779 31.5604Z" fill="url(#paint3_linear_91_8224)"/>
<path id="Vector_5" d="M62.7622 22.9554C62.9139 23.1251 63.0306 23.3229 63.1058 23.5376C63.181 23.7524 63.2132 23.9798 63.2005 24.207C63.1878 24.4342 63.1305 24.6566 63.0318 24.8616C62.9331 25.0666 62.7951 25.2502 62.6254 25.4019C62.4558 25.5535 62.258 25.6703 62.0433 25.7455C61.8285 25.8207 61.6011 25.8529 61.3739 25.8402C61.1467 25.8275 60.9243 25.7701 60.7193 25.6715C60.5142 25.5728 60.3307 25.4347 60.179 25.2651C59.6401 24.6646 59.0715 24.0914 58.4753 23.5476C57.8567 22.9879 57.2132 22.4564 56.5466 21.9547C55.1375 20.9143 53.6432 19.9946 52.0796 19.2053C50.4276 18.3765 48.7086 17.6885 46.9409 17.1484C45.1105 16.5804 43.2383 16.1567 41.3417 15.8811C39.4077 15.5946 37.4551 15.4522 35.5 15.4551C33.5452 15.4595 31.5931 15.6018 29.6583 15.8811C27.7627 16.1621 25.891 16.5857 24.0591 17.1484C22.2951 17.6971 20.5779 18.3861 18.9238 19.2088C18.1289 19.607 17.3514 20.0391 16.5934 20.5038C15.8578 20.955 15.1437 21.4403 14.4534 21.9582C13.7747 22.466 13.1318 22.997 12.5247 23.551C11.9175 24.1028 11.3496 24.6741 10.821 25.2651C10.6693 25.4347 10.4857 25.5728 10.2807 25.6715C10.0757 25.7701 9.85326 25.8275 9.62609 25.8402C9.39892 25.8529 9.17147 25.8207 8.95673 25.7455C8.74199 25.6703 8.54416 25.5535 8.37455 25.4019C8.20493 25.2502 8.06685 25.0666 7.96818 24.8616C7.86951 24.6566 7.81219 24.4342 7.79949 24.207C7.78678 23.9798 7.81895 23.7524 7.89415 23.5376C7.96935 23.3229 8.08611 23.1251 8.23777 22.9554C8.84721 22.2767 9.49821 21.6211 10.1908 20.9886C10.8833 20.3561 11.6128 19.7547 12.3792 19.1845C13.1456 18.6097 13.9467 18.066 14.7824 17.5536C16.4849 16.5063 18.2749 15.6084 20.1323 14.8699C22.0518 14.0985 24.031 13.4847 26.0502 13.0347C28.1104 12.5666 30.2034 12.2564 32.3108 12.1067C35.4928 11.8758 38.6904 11.9919 41.8472 12.4529C43.9189 12.7609 45.9642 13.2251 47.9659 13.8415C49.9108 14.4461 51.8041 15.2057 53.6275 16.1131C54.5209 16.5609 55.3854 17.0411 56.2211 17.5536C57.0522 18.066 57.852 18.6085 58.6208 19.1811C59.3895 19.7559 60.119 20.3584 60.8092 20.9886C61.5018 21.6211 62.1528 22.2767 62.7622 22.9554ZM41.5598 53.0641C41.5598 53.8598 41.4031 54.6478 41.0985 55.383C40.794 56.1183 40.3476 56.7863 39.7849 57.349C39.2222 57.9117 38.5542 58.3581 37.819 58.6626C37.0838 58.9671 36.2958 59.1239 35.5 59.1239C34.7042 59.1239 33.9162 58.9671 33.181 58.6626C32.4458 58.3581 31.7778 57.9117 31.2151 57.349C30.6524 56.7863 30.206 56.1183 29.9015 55.383C29.5969 54.6478 29.4402 53.8598 29.4402 53.0641C29.4402 51.4569 30.0786 49.9156 31.2151 48.7791C32.3515 47.6427 33.8928 47.0042 35.5 47.0042C37.1072 47.0042 38.6485 47.6427 39.7849 48.7791C40.9214 49.9156 41.5598 51.4569 41.5598 53.0641Z" fill="url(#paint4_linear_91_8224)"/>
</g>
</g>
<defs>
<linearGradient id="paint0_linear_91_8224" x1="38.9627" y1="38.3474" x2="38.9627" y2="48.7543" gradientUnits="userSpaceOnUse">
<stop stop-color="#E5BC4A"/>
<stop offset="1" stop-color="#F48F27"/>
</linearGradient>
<linearGradient id="paint1_linear_91_8224" x1="38.9441" y1="25.8468" x2="38.9441" y2="39.7749" gradientUnits="userSpaceOnUse">
<stop stop-color="#E5BC4A"/>
<stop offset="1" stop-color="#F48F27"/>
</linearGradient>
<linearGradient id="paint2_linear_91_8224" x1="38.9418" y1="13.7261" x2="38.9418" y2="63.4523" gradientUnits="userSpaceOnUse">
<stop stop-color="#E5BC4A"/>
<stop offset="1" stop-color="#F48F27"/>
</linearGradient>
<linearGradient id="paint3_linear_91_8224" x1="35.5671" y1="24.1154" x2="35.5671" y2="43.5322" gradientUnits="userSpaceOnUse">
<stop stop-color="#E5BC4A"/>
<stop offset="1" stop-color="#F48F27"/>
</linearGradient>
<linearGradient id="paint4_linear_91_8224" x1="35.5" y1="11.9914" x2="35.5" y2="59.1239" gradientUnits="userSpaceOnUse">
<stop stop-color="#E5BC4A"/>
<stop offset="1" stop-color="#F48F27"/>
</linearGradient>
</defs>
</svg>
