<?xml version="1.0" encoding="UTF-8"?>
<svg id="Layer_1" data-name="Layer 1" xmlns="http://www.w3.org/2000/svg" viewBox="0 0 537.75 578.39">
  <defs>
    <style>
      .cls-1, .cls-2 {
        fill: #1a1a40;
      }

      .cls-1, .cls-3 {
        stroke: gold;
        stroke-width: 3.12px;
      }

      .cls-1, .cls-3, .cls-4 {
        stroke-miterlimit: 10;
      }

      .cls-2 {
        stroke-width: 0px;
      }

      .cls-3 {
        fill: none;
      }

      .cls-4 {
        fill: #333;
        stroke: #333;
        stroke-width: 4.5px;
      }
    </style>
  </defs>
  <ellipse class="cls-1" cx="269.95" cy="276.21" rx="148.38" ry="160.67"/>
  <g>
    <path class="cls-3" d="m347.24,289.02v102.06c-44.26-5.25-78.42-51.89-78.42-93.37,0,40.71-32.91,86.85-75.97,93.05v-101.74c0-20.72,9.97-39.34,25.81-52.13,13.65-11.03,31.65-17.73,51.38-17.73s36.98,6.42,50.52,17.03c1.4,1.1,2.76,2.24,4.07,3.43,13.97,12.64,22.61,30.11,22.61,49.4Z"/>
    <path class="cls-3" d="m347.24,289.02c0-19.29-8.64-36.76-22.61-49.4-1.31-1.18-2.67-2.33-4.07-3.43-13.54-10.61-31.2-17.04-50.51-17.04s-37.74,6.71-51.39,17.73c-15.84,12.79-25.81,31.41-25.81,52.13v-80.31l77.2-47.31,38.77,23.57.79.48,34.38,20.91"/>
  </g>
  <g>
    <path class="cls-4" d="m157.72,114.51c-.61.52-1.3,1.1-2.07,1.73-.7.5-1.53,1.12-2.48,1.85-.95.73-2.05,1.54-3.29,2.43-3.33,2.31-6.67,4.67-10.01,7.08-3.35,2.41-6.31,4.54-8.9,6.4l-8.01,5.76c.92-.66,1.31-1.62,1.18-2.88-.13-1.26-.53-2.59-1.21-3.98-.68-1.4-1.46-2.76-2.33-4.09-.88-1.33-1.61-2.41-2.19-3.21l-24.55-34.29c-.79-.98-1.67-2.09-2.64-3.32-.97-1.23-1.99-2.31-3.08-3.25-1.09-.94-2.17-1.59-3.25-1.96-1.08-.37-2.11-.2-3.08.5l11.01-7.92c-.81.58-1.18,1.38-1.1,2.39.07,1.01.36,2.1.86,3.25.5,1.15,1.11,2.29,1.84,3.41.72,1.12,1.36,2.05,1.9,2.81,5.98,8.31,11.38,15.76,16.21,22.36l17,23.63c1.15-.91,2.81-2.15,5-3.72,2.18-1.57,4.36-3.13,6.51-4.69,2.5-1.88,5.17-3.85,8.04-5.9,1.65-1.35,2.8-2.65,3.46-3.9.66-1.25.99-2.43,1.01-3.55.02-1.12-.18-2.12-.58-3.02-.4-.9-.79-1.62-1.18-2.16l5.94,8.26Z"/>
    <path class="cls-4" d="m184.01,27.47c-.86.35-1.39,1.17-1.58,2.47-.19,1.3-.2,2.7-.02,4.2.18,1.51.45,2.97.82,4.4.37,1.43.67,2.45.92,3.07l13.98,34.46c.94,2.85,1.3,5.69,1.1,8.54-.21,2.85-.91,5.53-2.11,8.06-1.2,2.53-2.84,4.81-4.92,6.84-2.08,2.03-4.51,3.6-7.28,4.73-2.83,1.15-5.74,1.72-8.72,1.71-2.98,0-5.82-.55-8.51-1.61-2.69-1.06-5.1-2.59-7.24-4.59-2.14-2-3.74-4.4-4.8-7.2l-13.34-32.89c-.52-1.29-1.14-2.67-1.84-4.15-.7-1.47-1.49-2.8-2.37-3.99-.88-1.19-1.8-2.1-2.78-2.75-.98-.64-2.02-.74-3.13-.29l12.94-5.25c-.8.32-1.22,1.14-1.27,2.45-.04,1.31.1,2.72.43,4.24.33,1.52.74,2.97,1.22,4.34.49,1.38.83,2.32,1.03,2.81.9,2.58,1.89,5.29,2.98,8.15.89,2.37,1.93,5.03,3.13,7.98,1.2,2.96,2.44,5.93,3.73,8.92,1.46,3.43,2.8,6.56,4.03,9.4,1.22,2.84,2.57,5.11,4.05,6.8.84,1.02,2.02,1.94,3.54,2.76,1.52.82,3.19,1.45,5.02,1.89,1.83.44,3.72.64,5.68.6,1.96-.04,3.8-.41,5.52-1.11,2.59-1.05,4.83-2.5,6.74-4.35,1.9-1.85,3.39-3.94,4.45-6.27,1.06-2.33,1.67-4.8,1.83-7.41.16-2.61-.18-5.22-1.02-7.82l-12.95-32.19c-.47-1.17-1.13-2.53-1.98-4.09-.85-1.56-1.81-3-2.88-4.32-1.07-1.32-2.21-2.35-3.4-3.08-1.2-.73-2.41-.85-3.64-.35l12.66-5.13Z"/>
    <path class="cls-4" d="m213.47,31.56c-2.01-2.09-3.75-3.76-5.21-5.02-1.47-1.25-2.71-2.22-3.73-2.89-1.1-.73-2-1.25-2.71-1.56l18.68-2.48c-.13.02-.6.19-1.39.53-.8.34-1.58.79-2.34,1.35-.77.57-1.34,1.23-1.71,1.98-.37.75-.2,1.55.51,2.4l19.85,24.11,13.21-27.31c.51-1.27.36-2.27-.43-3.01-.8-.74-1.79-1.31-2.98-1.73-1.19-.42-2.33-.67-3.41-.77-1.09-.1-1.69-.14-1.82-.12l18.71-2.28c-1.16.35-2.35,1.04-3.56,2.06-1.04.8-2.16,1.97-3.37,3.49-1.21,1.53-2.39,3.6-3.53,6.23l-11.84,24.62,19.41,23.06c2.01,2.09,3.75,3.78,5.22,5.07,1.47,1.29,2.68,2.27,3.64,2.95,1.12.86,2.06,1.45,2.84,1.75l-18.69,2.38c.13-.02.63-.15,1.51-.39.87-.24,1.71-.62,2.52-1.12.81-.5,1.39-1.16,1.76-1.98.36-.82.07-1.8-.88-2.95l-19.71-23.82-13,27.38c-.62,1.49-.56,2.6.17,3.34.73.75,1.68,1.26,2.86,1.55,1.18.29,2.33.44,3.48.46,1.14.02,1.78.03,1.91,0l-19.09,2.43c1.1-.34,2.28-1.03,3.56-2.06,1.03-.87,2.18-2.07,3.46-3.61,1.28-1.53,2.55-3.62,3.83-6.27l11.87-24.42-19.55-23.34Z"/>
    <path class="cls-4" d="m306.86,57.41c2.2,2.81,3.53,5.76,3.97,8.84.44,3.08.15,5.97-.87,8.68-1.03,2.71-2.68,5.07-4.98,7.09-2.29,2.02-5.08,3.37-8.35,4.07-1.23.28-2.48.45-3.75.5-1.27.04-2.57,0-3.89-.12-2.12-.2-4.2-.58-6.25-1.14-2.05-.56-3.91-1.19-5.58-1.88-1.03-.43-1.96-.79-2.8-1.07-.84-.28-1.59-.45-2.25-.51-1.39-.13-2.15.5-2.28,1.89l-.4-.04,1.6-16.87.4.04c-.17,1.79.19,3.94,1.09,6.46.89,2.52,2.45,4.76,4.67,6.7,1.86,1.51,3.8,2.68,5.83,3.51,2.03.83,4.03,1.33,6.01,1.52,3.24.31,6.25-.14,9.04-1.35,2.78-1.2,4.84-3.01,6.17-5.42,1.33-2.41,1.71-5.31,1.12-8.71-.58-3.39-2.58-7.09-6.01-11.08-2.24-2.42-4.72-4.6-7.44-6.56-2.72-1.96-5.34-4.03-7.87-6.2-6.73-5.78-9.42-11.61-8.06-17.49.85-3.32,2.81-6.03,5.88-8.11,3.07-2.08,6.62-3.23,10.64-3.45,1.75-.1,3.39.02,4.92.37,1.54.35,2.93.76,4.19,1.25,1.26.49,2.34.97,3.27,1.46.92.49,1.61.85,2.05,1.1,1.39.8,2.67,1.45,3.82,1.96,1.15.51,2.05.59,2.68.25.56-.28.91-1.12,1.04-2.51l.5.05-1.45,15.29-.5-.05c0-.06-.06-.47-.19-1.22-.13-.75-.42-1.73-.87-2.94-.45-1.21-1.1-2.51-1.93-3.89-.84-1.38-1.95-2.72-3.32-4.02-1.38-1.3-3.06-2.46-5.03-3.48-1.97-1.02-4.35-1.7-7.12-2.03-2.78-.26-5.52.15-8.23,1.22-2.71,1.08-4.75,2.92-6.13,5.53-.95,2.25-1.08,4.35-.4,6.32.68,1.97,1.85,3.87,3.52,5.69,1.66,1.83,3.63,3.58,5.91,5.27,2.28,1.69,4.57,3.35,6.89,5.01,2.31,1.66,4.44,3.31,6.39,4.96,1.95,1.65,3.4,3.36,4.37,5.12Z"/>
    <path class="cls-4" d="m332.02,21.27l44.04,13.5-3.24,10.58c.12-.38.24-1.06.36-2.03.12-.97.17-1.98.15-3.03-.03-1.05-.21-2.04-.55-2.98-.34-.94-.95-1.54-1.84-1.82l-15.2-5.18-16.05,52.02c-.39,1.27-.79,2.68-1.19,4.22-.41,1.54-.63,3.02-.68,4.43-.05,1.41.14,2.67.56,3.77.43,1.1,1.24,1.84,2.45,2.21l-14.97-4.59c1.27.39,2.4.27,3.4-.37.99-.63,1.88-1.56,2.68-2.78.79-1.22,1.47-2.59,2.04-4.12.57-1.53,1.07-2.99,1.5-4.39l15.77-51.79-14.04-4.2c-1.27-.39-2.42-.26-3.46.4-1.04.66-1.91,1.47-2.62,2.43-.71.96-1.28,1.92-1.71,2.86-.43.95-.67,1.51-.73,1.71l3.33-10.87Z"/>
    <path class="cls-4" d="m402.01,124.32c.16.54.31,1.01.48,1.4.16.39.33.71.49.96.13.3.29.58.46.82l-.05.09-16.57-9.18.05-.09c1.54.78,2.86,1.07,3.96.88,1.09-.19,1.81-.38,2.14-.58,1.88-.93,3.09-3.19,3.63-6.76.12-.62.49-2.81,1.13-6.56.64-3.75,1.51-9.04,2.64-15.86l-.96-.53-1.96-1.2-.96-.53c-2.79-1.55-5.53-3.08-8.22-4.61-2.69-1.53-5.18-2.89-7.48-4.09-11.66,9.8-18.02,15.17-19.07,16.1-2.36,2.34-3.43,4.41-3.21,6.2.14.84.53,1.58,1.15,2.24.28.31.6.56.95.75l-.05.09-13.88-7.46.05-.09.17.1c1.31.65,2.68.92,4.12.8,1.43-.12,2.84-.44,4.24-.96,1.39-.52,2.72-1.21,3.99-2.06,1.27-.85,2.4-1.69,3.39-2.51.58-.51,1.72-1.46,3.4-2.85,1.68-1.39,3.69-3.06,6.04-5.03,2.34-1.97,4.91-4.12,7.68-6.46,2.78-2.34,5.57-4.68,8.4-7.03,2.82-2.35,5.57-4.63,8.23-6.83,2.67-2.21,5.03-4.17,7.08-5.88,2.05-1.71,3.71-3.09,4.97-4.14,1.26-1.05,1.91-1.6,1.95-1.66l.09.05c-.03.06-.18.94-.45,2.66-.27,1.72-.62,3.95-1.04,6.72-.43,2.76-.91,5.9-1.45,9.4-.54,3.5-1.09,7.11-1.66,10.82-.58,3.71-1.13,7.35-1.67,10.93-.54,3.58-1.03,6.8-1.48,9.67-.45,2.87-.82,5.25-1.11,7.14-.29,1.89-.44,2.99-.45,3.28-.13,1.75-.18,3.72-.14,5.91.04,2.19.36,4.17.97,5.95Zm3.68-66.69c-.28.23-1.16.95-2.64,2.19-1.48,1.23-3.32,2.77-5.53,4.63-2.21,1.85-4.66,3.91-7.36,6.18-2.7,2.27-5.41,4.54-8.12,6.84l18.57,10.3c.62-3.45,1.21-6.89,1.78-10.3.56-3.41,1.07-6.53,1.54-9.35.46-2.82.85-5.17,1.17-7.05.32-1.88.51-3.02.59-3.43Z"/>
    <path class="cls-4" d="m480.02,104.4c-1.02-.46-2.31-.76-3.87-.9-1.28-.16-2.92-.17-4.91-.02-1.99.14-4.33.58-7.02,1.3l-26.68,7.39-14.88,16.78c-.83,1.04-1.73,2.18-2.69,3.41-.96,1.24-1.77,2.47-2.42,3.71-.66,1.24-1.02,2.43-1.09,3.56-.07,1.13.36,2.12,1.31,2.96l-11.26-9.99c.84.75,1.88.96,3.11.63,1.23-.33,2.46-.95,3.7-1.85,1.24-.9,2.42-1.88,3.53-2.93,1.11-1.06,2-1.96,2.66-2.7l13.64-15.23,4.43-28.59c.25-2.89.39-5.32.41-7.3.02-1.98-.03-3.55-.14-4.72-.04-1.36-.15-2.44-.33-3.23l13.95,12.37c-.1-.09-.53-.33-1.28-.74-.75-.4-1.6-.7-2.53-.91-.93-.2-1.82-.17-2.68.09-.86.26-1.43,1.02-1.74,2.26l-5.07,30.81,29.25-8.04c1.2-.45,1.82-1.23,1.87-2.34.05-1.11-.12-2.24-.52-3.39-.4-1.15-.88-2.18-1.46-3.09-.57-.91-.91-1.41-1.01-1.49l13.72,12.17Z"/>
  </g>
  <g>
    <path class="cls-4" d="m131.48,422.71c-1.63-1.75-4.02-2.76-7.16-3.01-3.14-.26-6.38.26-9.72,1.55-.72.3-2.1.86-4.15,1.68-2.05.82-4.52,1.8-7.41,2.94-2.89,1.14-6.04,2.39-9.45,3.75-3.41,1.36-6.84,2.72-10.27,4.1-8.07,3.23-16.99,6.81-26.78,10.73,5.06-9.79,9.59-18.63,13.6-26.52,1.77-3.37,3.48-6.68,5.13-9.94,1.65-3.26,3.15-6.2,4.52-8.83s2.47-4.81,3.31-6.55c.84-1.73,1.31-2.74,1.42-3.02,1.18-2.83,1.98-5.17,2.37-7.04.4-1.87.59-3.39.59-4.56,0-1.27-.2-2.31-.59-3.13l12.9,13.73c-1.28-1.08-2.57-1.74-3.88-1.98-1.12-.23-2.34-.05-3.65.54-1.32.59-2.53,2.03-3.65,4.35-.21.46-.74,1.5-1.6,3.12-.86,1.62-1.89,3.6-3.11,5.95s-2.58,4.98-4.1,7.89c-1.52,2.91-3.04,5.84-4.55,8.79-3.64,6.92-7.71,14.65-12.21,23.19,9.45-3.79,17.97-7.22,25.56-10.28,3.24-1.29,6.46-2.57,9.63-3.85,3.17-1.27,6.05-2.42,8.63-3.46,2.58-1.03,4.73-1.92,6.45-2.66,1.72-.74,2.77-1.19,3.15-1.37,1.91-.87,3.1-1.89,3.57-3.04.46-1.16.6-2.28.41-3.37-.29-1.19-.88-2.41-1.77-3.66l12.82,13.94Z"/>
    <path class="cls-4" d="m140.08,428.49c-.28.45-.89,1.46-1.82,3.04-.93,1.57-2.04,3.39-3.31,5.45-1.28,2.06-2.58,4.24-3.93,6.54-2.38,3.85-4.99,8.13-7.83,12.86l4.07,2.52,8.09,5.12,4.07,2.52c.79.49,1.61.88,2.45,1.16.84.28,1.67.43,2.49.43.82,0,1.62-.23,2.41-.68.79-.45,1.51-1.21,2.18-2.29l-6.52,10.74c.47-.88.68-1.69.62-2.43-.05-.74-.29-1.45-.72-2.15-.43-.7-1-1.36-1.7-1.99-.71-.63-1.46-1.24-2.28-1.82l-3.98-2.46-7.92-5.01-3.98-2.46c-2.97,4.81-5.65,9.21-8.04,13.2l-9.28,15.01c1.24.77,3.01,1.86,5.3,3.28,2.29,1.42,4.56,2.84,6.8,4.26,2.24,1.43,5.03,3.17,8.37,5.23,2.39,1.32,4.41,1.9,6.06,1.76,1.65-.15,3.02-.59,4.11-1.33,1.08-.74,1.91-1.57,2.49-2.51s.98-1.52,1.21-1.77c-1.13,1.96-2.17,3.7-3.11,5.23-.77,1.24-1.49,2.4-2.15,3.48-.66,1.07-.99,1.54-.98,1.39-.68-.42-1.46-.86-2.34-1.33l-6.19-3.83c-3.41-2.19-6.87-4.37-10.38-6.53-3.51-2.17-6.61-4.09-9.33-5.77l-8.39-5.19c1.02.63,2.07.63,3.15.02s2.14-1.51,3.17-2.67c1.03-1.16,1.98-2.39,2.86-3.68.88-1.29,1.58-2.36,2.1-3.21l22.35-35.77c.64-1.17,1.34-2.45,2.09-3.86s1.33-2.79,1.74-4.14c.4-1.35.54-2.61.41-3.79-.13-1.18-.76-2.11-1.9-2.81,4.01,2.48,7.83,4.84,11.45,7.08,1.53.94,3.11,1.92,4.75,2.94,1.64,1.01,3.21,1.98,4.71,2.91,1.5.93,2.9,1.81,4.21,2.66,1.31.85,2.42,1.55,3.32,2.11l8.99,5.56-6.34,10.26c.12-.32.47-.96,1.07-1.92.59-.96.96-2.12,1.1-3.48.14-1.36-.15-2.85-.87-4.47-.72-1.62-2.33-3.24-4.84-4.87-2.77-1.71-5.41-3.38-7.92-5.01l-12.13-7.5Z"/>
    <path class="cls-4" d="m179.64,450.17c.55,1.57,1.32,3.99,2.3,7.26.99,3.28,2.15,7.04,3.49,11.3,1.34,4.26,2.75,8.83,4.23,13.73,1.48,4.9,2.97,9.74,4.45,14.53,1.48,4.79,2.91,9.37,4.28,13.74,1.37,4.37,2.55,8.18,3.55,11.42l14.11-45.31c.4-1.27.76-2.74,1.08-4.42.32-1.68.45-3.29.38-4.85-.07-1.55-.38-2.94-.93-4.16-.55-1.22-1.47-2.03-2.73-2.43l12.86,3.96c-.91-.22-1.81,0-2.72.66-.9.66-1.74,1.53-2.5,2.61-.76,1.08-1.44,2.25-2.04,3.48-.6,1.24-1.05,2.33-1.35,3.28l-13.25,42.24c-.34,1.29-.65,2.71-.93,4.26-.28,1.55-.39,3.05-.32,4.5.06,1.45.36,2.73.88,3.83.52,1.11,1.38,1.85,2.59,2.23l-8.65-2.73-22.03-71.9c-.35.66-.66,1.32-.95,2-.28.68-.52,1.3-.7,1.87l-13.34,42.21c-.34,1.29-.63,2.71-.88,4.27-.25,1.56-.34,3.06-.28,4.51.06,1.45.36,2.73.88,3.83.52,1.11,1.38,1.85,2.59,2.23l-13.62-4.2c1.14.36,2.24.15,3.29-.63,1.05-.78,2-1.81,2.85-3.07.85-1.26,1.61-2.61,2.27-4.04.66-1.43,1.17-2.61,1.54-3.54l12.56-39.74c.34-1.29.64-2.76.92-4.41.28-1.65.4-3.25.37-4.8-.03-1.54-.33-2.93-.88-4.15-.56-1.22-1.47-2.03-2.73-2.43l9.35,2.85Z"/>
    <path class="cls-4" d="m229.34,465.27l45.97,2.9-.7,11.04c.03-.4-.02-1.08-.12-2.06-.11-.97-.29-1.97-.56-2.98-.27-1.02-.68-1.94-1.22-2.77-.55-.83-1.28-1.28-2.21-1.34l-15.99-1.51-3.53,54.32c-.08,1.33-.14,2.79-.18,4.38-.04,1.6.09,3.09.37,4.47.28,1.38.75,2.56,1.43,3.54.67.98,1.64,1.5,2.9,1.58l-15.62-.99c1.33.08,2.4-.3,3.22-1.15.82-.85,1.47-1.95,1.96-3.32.49-1.37.83-2.86,1.03-4.48.2-1.62.35-3.16.44-4.62l3.31-54.04-14.63-.82c-1.33-.08-2.42.31-3.27,1.19-.86.88-1.52,1.87-1.99,2.97-.47,1.1-.8,2.16-1,3.18-.2,1.02-.3,1.63-.31,1.83l.71-11.34Z"/>
    <path class="cls-4" d="m332.19,460.18c-.92.15-1.61.84-2.08,2.07-.47,1.23-.78,2.59-.93,4.1-.15,1.51-.21,3-.16,4.47.04,1.48.12,2.54.23,3.2l6.13,36.68c.3,2.98.03,5.84-.79,8.57-.82,2.73-2.1,5.2-3.82,7.41-1.72,2.21-3.82,4.08-6.29,5.6-2.47,1.53-5.19,2.53-8.14,3.03-3.02.5-5.98.43-8.88-.23-2.91-.66-5.56-1.8-7.95-3.42s-4.42-3.64-6.07-6.06c-1.65-2.42-2.69-5.11-3.12-8.07l-5.85-35.01c-.23-1.38-.53-2.86-.9-4.45-.37-1.59-.85-3.06-1.44-4.41-.6-1.35-1.3-2.44-2.12-3.29-.81-.84-1.81-1.16-2.99-.97l13.77-2.3c-.85.14-1.44.85-1.77,2.12-.33,1.27-.5,2.68-.51,4.23-.01,1.55.07,3.06.25,4.51.17,1.45.31,2.44.39,2.97.32,2.71.7,5.58,1.14,8.6.35,2.5.79,5.33,1.31,8.47.53,3.15,1.09,6.32,1.69,9.52.68,3.66,1.3,7.01,1.88,10.05.57,3.04,1.4,5.55,2.47,7.52.6,1.18,1.55,2.34,2.85,3.47,1.3,1.13,2.79,2.11,4.48,2.94,1.69.83,3.49,1.44,5.41,1.83,1.92.39,3.79.43,5.63.12,2.75-.46,5.26-1.38,7.52-2.77,2.26-1.39,4.16-3.1,5.71-5.15,1.54-2.04,2.68-4.32,3.41-6.84.73-2.51.96-5.13.71-7.85l-5.62-34.24c-.21-1.24-.56-2.72-1.04-4.42-.49-1.7-1.11-3.32-1.87-4.84-.76-1.52-1.64-2.77-2.65-3.75-1.01-.98-2.17-1.36-3.48-1.14l13.47-2.25Z"/>
    <path class="cls-4" d="m343.55,470.61c-.59-1.19-1.24-2.52-1.95-3.99-.71-1.47-1.49-2.79-2.33-3.99-.84-1.19-1.79-2.08-2.85-2.67-1.05-.59-2.19-.62-3.41-.09l24.22-10.54c2.5-1.09,4.92-1.65,7.26-1.69,2.34-.04,4.51.37,6.52,1.24s3.81,2.13,5.4,3.79c1.59,1.66,2.89,3.65,3.9,5.97,1.04,2.38,1.62,4.77,1.76,7.17.14,2.4-.17,4.69-.92,6.87-.76,2.18-1.91,4.15-3.46,5.91-1.55,1.76-3.52,3.16-5.89,4.2l-2.47,1.07c2.42,1.56,5.07,3.25,7.97,5.07,2.89,1.82,5.72,3.6,8.47,5.34,2.75,1.74,5.31,3.34,7.69,4.81,2.38,1.47,4.26,2.62,5.64,3.47,1.07.62,2.04,1.05,2.9,1.29.87.24,1.63.36,2.28.37.66,0,1.18-.04,1.57-.14.39-.1.65-.17.77-.23l-7.68,3.34c-2.74-1.63-5.62-3.37-8.63-5.21-3.01-1.84-5.97-3.67-8.86-5.49-2.9-1.82-5.67-3.58-8.34-5.29-2.66-1.7-5.02-3.24-7.06-4.59-.58-.33-.98-.59-1.21-.78l-8.32,3.62,7.96,18.28c.59,1.19,1.23,2.49,1.91,3.9.68,1.41,1.44,2.65,2.28,3.74.83,1.09,1.76,1.88,2.78,2.38,1.01.5,2.1.5,3.26,0l-13.16,5.73c1.04-.45,1.62-1.27,1.76-2.45.14-1.18.04-2.5-.3-3.95-.34-1.45-.78-2.88-1.33-4.31-.55-1.43-1.02-2.6-1.42-3.51l-16.7-38.62Zm12.38,17.45l11.15-4.85c2.19-.96,4.09-2.22,5.69-3.78,1.6-1.57,2.82-3.29,3.67-5.19.84-1.89,1.29-3.9,1.35-6.02.05-2.12-.37-4.22-1.27-6.3-.93-2.13-2.23-4.01-3.92-5.63-1.68-1.62-3.56-2.89-5.62-3.8-2.07-.91-4.26-1.42-6.59-1.53-2.33-.11-4.59.31-6.79,1.27l-11.15,4.85,13.49,30.99Z"/>
    <path class="cls-4" d="m388.89,434.35c.32.43,1.04,1.36,2.15,2.81,1.12,1.45,2.4,3.14,3.85,5.09,1.45,1.95,2.99,3.97,4.63,6.06,2.7,3.63,5.72,7.63,9.07,12.02l3.84-2.86,7.74-5.63,3.84-2.86c.75-.56,1.41-1.17,1.98-1.85.57-.68,1.01-1.39,1.31-2.16.3-.76.39-1.59.26-2.49-.13-.9-.57-1.85-1.33-2.87l7.58,10.02c-.65-.76-1.33-1.25-2.03-1.47-.71-.22-1.46-.26-2.26-.12-.8.14-1.63.43-2.48.85-.85.42-1.69.9-2.53,1.45l-3.76,2.8-7.58,5.51-3.76,2.8c3.37,4.53,6.47,8.65,9.31,12.34l10.53,14.16c1.17-.87,2.84-2.11,5-3.72,2.16-1.61,4.31-3.19,6.47-4.75,2.15-1.56,4.8-3.51,7.95-5.85,2.11-1.73,3.4-3.4,3.87-4.99.47-1.59.56-3.03.28-4.31-.29-1.28-.76-2.36-1.41-3.24s-1.05-1.47-1.2-1.78c1.4,1.77,2.64,3.38,3.71,4.82.87,1.17,1.69,2.27,2.44,3.28.75,1.01,1.06,1.49.93,1.42-.64.48-1.34,1.04-2.1,1.69l-5.84,4.34c-3.29,2.37-6.59,4.78-9.9,7.24-3.31,2.46-6.24,4.64-8.8,6.55l-7.92,5.89c.96-.71,1.35-1.69,1.18-2.93-.17-1.24-.61-2.55-1.31-3.93-.7-1.38-1.49-2.72-2.37-4.02-.88-1.29-1.62-2.34-2.21-3.14l-25.02-33.95c-.85-1.03-1.79-2.15-2.82-3.37s-2.1-2.27-3.21-3.14c-1.11-.87-2.23-1.47-3.37-1.78-1.14-.31-2.25-.07-3.31.73,3.79-2.82,7.38-5.5,10.8-8.03,1.44-1.07,2.93-2.18,4.48-3.33,1.55-1.15,3.03-2.25,4.44-3.3,1.41-1.05,2.76-2.03,4.03-2.94,1.27-.9,2.33-1.68,3.19-2.31l8.48-6.31,7.2,9.68c-.25-.23-.71-.79-1.39-1.7-.67-.91-1.62-1.67-2.83-2.3-1.21-.63-2.71-.91-4.47-.83-1.77.07-3.87.98-6.31,2.71-2.61,1.94-5.14,3.78-7.58,5.51l-11.44,8.51Z"/>
    <path class="cls-4" d="m469.65,411.18c3.57-.16,6.74.47,9.5,1.9,2.76,1.43,4.95,3.34,6.56,5.75,1.61,2.41,2.57,5.13,2.88,8.17.31,3.04-.2,6.09-1.54,9.16-.48,1.17-1.07,2.28-1.78,3.34-.7,1.06-1.49,2.1-2.36,3.1-1.39,1.61-2.91,3.08-4.56,4.43-1.65,1.34-3.24,2.49-4.77,3.45-.95.59-1.78,1.14-2.5,1.66-.72.52-1.29,1.04-1.73,1.54-.91,1.06-.84,2.04.21,2.95l-.26.3-12.81-11.1.26-.3c1.36,1.17,3.32,2.13,5.89,2.86,2.57.74,5.3.76,8.17.09,2.31-.64,4.39-1.54,6.24-2.71,1.85-1.17,3.42-2.51,4.73-4.01,2.13-2.46,3.52-5.17,4.15-8.14.64-2.97.36-5.69-.83-8.17-1.19-2.48-3.34-4.47-6.44-5.97-3.1-1.5-7.27-2.01-12.51-1.54-3.27.42-6.49,1.17-9.66,2.25-3.17,1.08-6.38,2.01-9.62,2.81-8.61,2.12-14.92.93-18.92-3.59-2.21-2.62-3.28-5.78-3.19-9.49.09-3.7,1.21-7.26,3.37-10.67.93-1.48,1.98-2.74,3.16-3.8,1.17-1.05,2.32-1.94,3.45-2.69,1.13-.74,2.15-1.34,3.09-1.81.93-.47,1.63-.81,2.08-1.03,1.46-.67,2.73-1.33,3.82-1.97,1.08-.64,1.67-1.32,1.76-2.03.1-.62-.38-1.39-1.44-2.3l.33-.38,11.6,10.05-.33.38s-.42-.23-1.1-.56c-.68-.33-1.65-.66-2.9-.99-1.25-.33-2.68-.56-4.29-.68-1.61-.12-3.34,0-5.2.37-1.86.37-3.78,1.06-5.75,2.07-1.98,1.01-3.9,2.55-5.78,4.62-1.83,2.11-3.09,4.58-3.78,7.41-.69,2.83-.38,5.56.94,8.2,1.28,2.08,2.92,3.41,4.92,3.99,2,.59,4.22.74,6.68.44,2.45-.29,5.03-.88,7.72-1.75,2.69-.88,5.39-1.77,8.08-2.7,2.69-.92,5.28-1.7,7.75-2.32,2.48-.62,4.71-.82,6.71-.59Z"/>
  </g>
  <path class="cls-3" d="m111.88,304.26c12.56,81.51,78.63,143.68,158.26,143.68s145.7-62.17,158.26-143.68"/>
  <path class="cls-3" d="m111.93,247.51c12.68-81.35,78.69-143.35,158.21-143.35s145.52,62,158.21,143.35"/>
  <g>
    <path class="cls-2" d="m90.24,282.95c.51,0,.97-.24,1.42-1.04l.23.08-.65,1.15-9.4.16c-.24-5.27,7.92-8.82,7.8-12.43-.06-1.85-2.25-2.84-4.27-2.81l-2.02.03c-.51,0-.97.26-1.42,1.06l-.23-.08.67-1.18,3.74-.06c2.48-.04,5.55,1.33,5.6,3.71.07,3.89-8,6.89-7.92,11.51l6.45-.11Z"/>
    <path class="cls-2" d="m102.27,267.84c4.25-.07,7.74,3.32,7.82,7.56.07,4.24-3.3,7.75-7.55,7.83-4.25.07-7.74-3.32-7.81-7.56-.07-4.24,3.3-7.75,7.55-7.83Zm.31,15.17c3.1-.08,5.52-3.5,5.43-7.59-.1-4.11-2.69-7.41-5.79-7.36-3.1.08-5.52,3.5-5.43,7.59.1,4.11,2.69,7.41,5.79,7.36Z"/>
  </g>
  <g>
    <path class="cls-2" d="m437.54,282.84c.51,0,.97-.24,1.42-1.04l.23.08-.65,1.15-9.4.16c-.24-5.27,7.92-8.82,7.8-12.43-.06-1.85-2.25-2.84-4.27-2.81l-2.02.03c-.51,0-.97.26-1.42,1.06l-.23-.08.67-1.18,3.74-.06c2.48-.04,5.55,1.33,5.6,3.71.07,3.89-8,6.89-7.92,11.51l6.45-.11Z"/>
    <path class="cls-2" d="m450.25,283.08v-.22c.69-.1.89-.21,1.01-.68l-.04-2.07-9.12.16,8.94-10.4,2.01-2.23.21,12.23,1.02-.02v.22s-1.02.02-1.02.02l.04,2.07c.14.46.34.57,1.04.64v.22s-4.09.07-4.09.07Zm-7.63-3.04l8.6-.15-.17-9.61-8.44,9.76Z"/>
  </g>
</svg>