<?xml version="1.0" encoding="UTF-8"?>
<svg id="Layer_1" data-name="Layer 1" xmlns="http://www.w3.org/2000/svg" viewBox="0 0 1245.1 400.5">
  <defs>
    <style>
      .cls-1, .cls-2 {
        fill: #333;
      }

      .cls-1, .cls-3 {
        stroke-width: 0px;
      }

      .cls-4, .cls-3 {
        fill: #1a1a40;
      }

      .cls-4, .cls-5 {
        stroke: gold;
        stroke-miterlimit: 10;
        stroke-width: 3.12px;
      }

      .cls-2 {
        stroke: #333;
        stroke-linejoin: bevel;
        stroke-width: 4.5px;
      }

      .cls-5 {
        fill: none;
      }
    </style>
  </defs>
  <ellipse class="cls-4" cx="622.86" cy="97.78" rx="82.98" ry="89.86"/>
  <g>
    <path class="cls-5" d="m666.1,105.11v58.18c-25.23-2.99-44.71-29.58-44.71-53.23,0,23.21-18.76,49.51-43.31,53.05v-58c0-11.81,5.69-22.43,14.71-29.72,7.78-6.29,18.04-10.11,29.29-10.11s21.08,3.66,28.8,9.71c.8.63,1.57,1.28,2.32,1.95,7.96,7.21,12.89,17.16,12.89,28.16Z"/>
    <path class="cls-5" d="m666.1,105.11c0-11-4.93-20.95-12.89-28.16-.75-.67-1.52-1.33-2.32-1.95-7.72-6.05-17.79-9.71-28.8-9.71s-21.51,3.82-29.29,10.11c-9.03,7.29-14.71,17.91-14.71,29.72v-45.78l44.01-26.97,22.1,13.44.45.27,19.6,11.92"/>
  </g>
  <path class="cls-5" d="m534.45,113.47c7.02,45.59,43.97,80.35,88.51,80.35s81.48-34.77,88.51-80.35"/>
  <path class="cls-5" d="m534.48,81.73c7.09-45.49,44.01-80.17,88.48-80.17s81.38,34.68,88.48,80.17"/>
  <line class="cls-5" x1="622.38" y1="113.47" x2="622.07" y2="113.47"/>
  <path class="cls-3" d="m526.72,106.78c-.24-1.02-1.02-3.74-3.72-6.07-2.45-2.12-5.15-2.78-6.3-3,1.2-.27,3.87-1.03,6.3-3.18,2.55-2.26,3.42-4.8,3.72-5.88.14.92.66,3.56,3.11,5.88,2.69,2.56,5.94,3.06,6.91,3.18-.85.06-4.16.39-6.91,2.91-2.68,2.46-3.04,5.38-3.11,6.16Z"/>
  <path class="cls-3" d="m718.38,106.78c-.24-1.02-1.02-3.74-3.72-6.07-2.45-2.12-5.15-2.78-6.3-3,1.2-.27,3.87-1.03,6.3-3.18,2.55-2.26,3.42-4.8,3.72-5.88.14.92.66,3.56,3.11,5.88,2.69,2.56,5.94,3.06,6.91,3.18-.85.06-4.16.39-6.91,2.91-2.68,2.46-3.04,5.38-3.11,6.16Z"/>
  <g>
    <path class="cls-2" d="m60.34,326.4c-1.09.09-2.31.18-3.67.27-1.18,0-2.58.02-4.21.07-1.63.04-3.49.07-5.57.07-5.53-.09-11.1-.14-16.71-.14H1.78c1.54,0,2.74-.75,3.6-2.24.86-1.49,1.47-3.28,1.83-5.37.36-2.08.59-4.21.68-6.39.09-2.17.14-3.94.14-5.3l.14-57.47c-.09-1.72-.18-3.64-.27-5.77-.09-2.13-.36-4.14-.81-6.05-.45-1.9-1.13-3.49-2.04-4.76-.91-1.27-2.17-1.9-3.8-1.9h18.48c-1.36,0-2.4.59-3.12,1.77-.73,1.18-1.27,2.61-1.63,4.28-.36,1.68-.59,3.42-.68,5.23-.09,1.81-.14,3.35-.14,4.62,0,13.95.04,26.49.14,37.63v39.67c1.99-.09,4.82-.14,8.49-.14h10.94c4.26-.09,8.78-.14,13.59-.14,2.9-.18,5.21-.7,6.93-1.56,1.72-.86,3.03-1.9,3.94-3.12.9-1.22,1.49-2.49,1.77-3.8.27-1.31.41-2.42.41-3.33v13.86Z"/>
    <path class="cls-2" d="m149.33,231.71c-1.27,0-2.36.77-3.26,2.31-.91,1.54-1.63,3.31-2.17,5.3-.54,1.99-.95,3.99-1.22,5.98-.27,1.99-.41,3.44-.41,4.35v50.68c-.27,4.08-1.27,7.86-2.99,11.34-1.72,3.49-3.99,6.52-6.79,9.1-2.81,2.58-6.05,4.62-9.71,6.11-3.67,1.49-7.54,2.24-11.62,2.24s-8.13-.77-11.89-2.31c-3.76-1.54-7.06-3.67-9.92-6.39-2.85-2.72-5.12-5.89-6.79-9.51-1.68-3.62-2.47-7.47-2.38-11.55v-48.37c0-1.9-.07-3.96-.2-6.18-.14-2.22-.45-4.3-.95-6.25-.5-1.95-1.2-3.58-2.11-4.89-.91-1.31-2.17-1.97-3.8-1.97h19.02c-1.18,0-2.13.82-2.85,2.45-.73,1.63-1.27,3.49-1.63,5.57-.36,2.08-.59,4.12-.68,6.11-.09,1.99-.14,3.35-.14,4.08-.18,3.71-.32,7.66-.41,11.82-.09,3.44-.14,7.34-.14,11.68s.04,8.74.14,13.18c.09,5.07.18,9.71.27,13.93.09,4.21.63,7.77,1.63,10.67.54,1.72,1.56,3.49,3.06,5.3,1.49,1.81,3.28,3.46,5.37,4.96,2.08,1.49,4.37,2.72,6.86,3.67,2.49.95,5,1.43,7.54,1.43,3.8,0,7.38-.68,10.73-2.04,3.35-1.36,6.29-3.24,8.83-5.64,2.53-2.4,4.57-5.21,6.11-8.42,1.54-3.21,2.45-6.68,2.72-10.39l.14-47.28c0-1.72-.14-3.78-.41-6.18-.27-2.4-.75-4.71-1.43-6.93-.68-2.22-1.59-4.1-2.72-5.64-1.13-1.54-2.6-2.31-4.42-2.31h18.61Z"/>
    <path class="cls-2" d="m176.23,246.24c-2.36-3.17-4.42-5.73-6.18-7.68-1.77-1.95-3.28-3.46-4.55-4.55-1.36-1.18-2.49-2.04-3.4-2.58l25.68-.14c-.18,0-.84.16-1.97.48-1.13.32-2.27.79-3.4,1.43-1.13.63-2.02,1.43-2.65,2.38-.63.95-.54,2.06.27,3.33l22.69,36,22.55-34.65c.9-1.63.88-3.01-.07-4.14-.95-1.13-2.2-2.08-3.74-2.85-1.54-.77-3.04-1.31-4.48-1.63-1.45-.32-2.27-.48-2.45-.48l25.68.14c-1.63.27-3.35,1-5.16,2.17-1.54.91-3.26,2.29-5.16,4.14-1.9,1.86-3.85,4.46-5.84,7.81l-20.24,31.25,22.28,34.51c2.35,3.17,4.42,5.75,6.18,7.75,1.77,1.99,3.24,3.53,4.42,4.62,1.36,1.36,2.54,2.31,3.53,2.85h-25.68c.18,0,.88-.09,2.11-.27,1.22-.18,2.42-.54,3.6-1.09,1.18-.54,2.08-1.33,2.72-2.38.63-1.04.41-2.42-.68-4.14l-22.55-35.6-22.28,34.78c-1.09,1.9-1.2,3.42-.34,4.55.86,1.13,2.06,1.99,3.6,2.58,1.54.59,3.08,1,4.62,1.22,1.54.23,2.4.34,2.58.34h-26.22c1.54-.27,3.26-1,5.16-2.17,1.54-1,3.31-2.42,5.3-4.28,1.99-1.86,4.08-4.46,6.25-7.81l20.24-30.98-22.42-34.92Z"/>
    <path class="cls-2" d="m300.41,284.83c3.35,3.53,5.52,7.36,6.52,11.48,1,4.12.97,8.08-.07,11.89-1.04,3.8-2.99,7.22-5.84,10.26-2.85,3.04-6.45,5.23-10.8,6.59-1.63.54-3.31.93-5.03,1.16-1.72.22-3.49.34-5.3.34-2.9,0-5.77-.25-8.63-.75-2.85-.5-5.46-1.11-7.81-1.83-1.45-.45-2.76-.81-3.94-1.09-1.18-.27-2.22-.41-3.12-.41-1.9,0-2.85.95-2.85,2.85h-.54v-23.1h.54c0,2.45.77,5.32,2.31,8.63,1.54,3.31,3.94,6.14,7.2,8.49,2.72,1.81,5.5,3.15,8.36,4.01,2.85.86,5.64,1.29,8.36,1.29,4.44,0,8.47-1,12.09-2.99,3.62-1.99,6.18-4.71,7.68-8.15,1.49-3.44,1.63-7.43.41-11.96-1.22-4.53-4.42-9.28-9.58-14.27-3.35-2.99-7-5.64-10.94-7.95-3.94-2.31-7.77-4.78-11.48-7.4-9.87-6.97-14.27-14.54-13.18-22.69.72-4.62,3.03-8.54,6.93-11.75,3.89-3.21,8.56-5.23,13.99-6.05,2.35-.36,4.6-.41,6.73-.14,2.13.27,4.08.66,5.84,1.15,1.77.5,3.31,1.02,4.62,1.56,1.31.54,2.29.95,2.92,1.22,1.99.91,3.8,1.63,5.44,2.17,1.63.54,2.85.54,3.67,0,.72-.45,1.09-1.63,1.09-3.53h.68v20.92h-.68c0-.09-.14-.63-.41-1.63-.27-1-.79-2.29-1.56-3.87-.77-1.58-1.81-3.26-3.12-5.03-1.31-1.77-2.99-3.44-5.03-5.03-2.04-1.58-4.46-2.94-7.27-4.08-2.81-1.13-6.11-1.74-9.92-1.83-3.8,0-7.47.91-11,2.72-3.53,1.81-6.07,4.58-7.61,8.29-1,3.17-.91,6.05.27,8.63,1.18,2.58,3.01,5.01,5.5,7.27,2.49,2.26,5.39,4.39,8.7,6.39,3.31,1.99,6.63,3.96,9.99,5.91,3.35,1.95,6.45,3.92,9.31,5.91,2.85,1.99,5.05,4.12,6.59,6.39Z"/>
    <path class="cls-2" d="m320.11,231.3h62.77v15.08c0-.54-.11-1.47-.34-2.79-.23-1.31-.57-2.65-1.02-4.01-.45-1.36-1.09-2.58-1.9-3.67-.82-1.09-1.86-1.63-3.12-1.63l-21.88-.68-.14,74.18c0,1.81.04,3.8.14,5.98.09,2.17.38,4.19.88,6.05.5,1.86,1.24,3.42,2.24,4.69,1,1.27,2.35,1.9,4.08,1.9h-21.33c1.81,0,3.24-.61,4.28-1.83,1.04-1.22,1.83-2.79,2.38-4.69.54-1.9.88-3.96,1.02-6.18.13-2.22.2-4.32.2-6.32l-.14-73.78-19.97.14c-1.81,0-3.26.63-4.35,1.9-1.09,1.27-1.9,2.67-2.45,4.21-.54,1.54-.91,3.01-1.09,4.42-.18,1.41-.27,2.24-.27,2.51v-15.49Z"/>
    <path class="cls-2" d="m463.04,323.42c.54.54,1.04,1,1.5,1.36.45.36.86.63,1.22.82.36.27.72.5,1.09.68v.14h-25.82v-.14c2.36-.09,4.12-.61,5.3-1.56,1.18-.95,1.9-1.65,2.17-2.11,1.63-2.35,1.58-5.84-.13-10.46-.27-.81-1.27-3.67-2.99-8.56-1.72-4.89-4.17-11.77-7.34-20.65h-1.49l-3.12-.14h-1.5c-4.35,0-8.63-.02-12.84-.07-4.21-.04-8.08-.02-11.62.07-7.43,19.38-11.46,29.98-12.09,31.79-1.27,4.35-1.18,7.52.27,9.51.72.91,1.67,1.54,2.85,1.9.54.18,1.09.27,1.63.27v.14l-21.47.27v-.14h.27c1.99-.09,3.8-.68,5.43-1.77,1.63-1.09,3.1-2.4,4.42-3.94,1.31-1.54,2.45-3.24,3.4-5.1.95-1.86,1.74-3.6,2.38-5.23.36-1,1.09-2.88,2.17-5.64,1.09-2.76,2.38-6.09,3.87-9.99,1.49-3.89,3.12-8.15,4.89-12.77,1.77-4.62,3.55-9.26,5.37-13.93,1.81-4.66,3.58-9.19,5.3-13.59,1.72-4.39,3.24-8.29,4.55-11.68,1.31-3.4,2.38-6.13,3.19-8.22.82-2.08,1.22-3.17,1.22-3.26h.14c0,.09.41,1.25,1.22,3.46.81,2.22,1.88,5.12,3.19,8.7,1.31,3.58,2.81,7.63,4.48,12.16,1.68,4.53,3.4,9.19,5.16,13.99,1.77,4.8,3.51,9.51,5.23,14.13,1.72,4.62,3.26,8.79,4.62,12.5,1.36,3.71,2.49,6.79,3.4,9.24.9,2.45,1.45,3.85,1.63,4.21,1,2.17,2.24,4.55,3.74,7.13,1.49,2.58,3.19,4.73,5.09,6.45Zm-39.67-81.93c-.18.45-.75,1.9-1.7,4.35-.95,2.45-2.13,5.5-3.53,9.17-1.41,3.67-2.97,7.75-4.69,12.23-1.72,4.48-3.44,8.99-5.16,13.52h28.94c-1.54-4.53-3.1-9.01-4.69-13.45-1.58-4.44-3.04-8.49-4.35-12.16-1.31-3.67-2.4-6.72-3.26-9.17-.86-2.45-1.38-3.94-1.56-4.48Z"/>
    <path class="cls-2" d="m533.97,231.3c-1.45.45-3.04,1.31-4.75,2.58-1.45,1-3.12,2.47-5.03,4.42-1.9,1.95-3.9,4.51-5.98,7.68l-20.52,31.66v30.57c.09,1.81.2,3.78.34,5.91.14,2.13.43,4.12.88,5.98.45,1.86,1.15,3.4,2.11,4.62s2.29,1.83,4.01,1.83h-20.52c1.54,0,2.79-.72,3.74-2.17.95-1.45,1.65-3.19,2.11-5.23.45-2.04.77-4.1.95-6.18.18-2.08.27-3.8.27-5.16l.14-27.85-21.33-33.15c-2.36-3.17-4.42-5.77-6.18-7.81-1.77-2.04-3.24-3.6-4.42-4.69-1.27-1.36-2.36-2.35-3.26-2.99h25.41c-.18,0-.84.14-1.97.41-1.13.27-2.26.73-3.4,1.36-1.13.63-2.02,1.47-2.65,2.51-.63,1.04-.54,2.33.27,3.87l22.69,36,22.55-34.65c.81-1.54.75-2.9-.2-4.08-.95-1.18-2.15-2.17-3.6-2.99-1.45-.82-2.88-1.43-4.28-1.83-1.41-.41-2.2-.61-2.38-.61h25Z"/>
    <path class="cls-2" d="m678.26,231.3c-3.26,0-6.48,1.45-9.65,4.35-3.17,2.9-5.66,6.61-7.47,11.14-.36,1-1.09,2.9-2.17,5.71-1.09,2.81-2.4,6.18-3.94,10.12-1.54,3.94-3.21,8.24-5.03,12.91-1.81,4.67-3.62,9.35-5.43,14.06-4.26,11.05-8.97,23.28-14.13,36.68-5.07-14.13-9.69-26.86-13.86-38.18-1.72-4.89-3.44-9.67-5.16-14.33-1.72-4.66-3.26-8.9-4.62-12.7-1.36-3.8-2.51-6.93-3.46-9.37-.95-2.45-1.52-3.85-1.7-4.21-1.72-3.8-3.33-6.77-4.82-8.9-1.49-2.13-2.83-3.74-4.01-4.82-1.27-1.18-2.49-1.95-3.67-2.31l25.68-.14c-2.26.27-4.12.95-5.57,2.04-1.27.91-2.22,2.29-2.85,4.14-.63,1.86-.32,4.42.95,7.68.27.63.82,2.13,1.63,4.48.82,2.36,1.83,5.23,3.06,8.63,1.22,3.4,2.58,7.2,4.08,11.41,1.5,4.21,3.01,8.45,4.55,12.7,3.53,10.05,7.47,21.29,11.82,33.7,4.98-12.95,9.46-24.64,13.45-35.05,1.72-4.44,3.42-8.83,5.09-13.18,1.68-4.35,3.19-8.29,4.55-11.82,1.36-3.53,2.47-6.5,3.33-8.9.86-2.4,1.38-3.87,1.56-4.42.9-2.72,1-4.84.27-6.39-.73-1.54-1.72-2.72-2.99-3.53-1.45-.82-3.22-1.36-5.3-1.63l25.82.14Z"/>
    <path class="cls-2" d="m704.48,233.06c0,.73.02,2.33.07,4.82.04,2.49.07,5.39.07,8.7s.04,6.77.13,10.39c0,6.16.04,13,.14,20.52h6.52l13.04.14h6.52c1.27,0,2.49-.14,3.67-.41,1.18-.27,2.24-.7,3.19-1.29.95-.59,1.72-1.43,2.31-2.51.59-1.09.88-2.49.88-4.21l.13,17.12c-.09-1.36-.43-2.45-1.02-3.26-.59-.82-1.38-1.47-2.38-1.97-1-.5-2.13-.86-3.4-1.09-1.27-.23-2.58-.38-3.94-.48h-6.39l-12.77-.14h-6.38c0,7.7.04,14.72.13,21.06v24.05h8.49c3.67,0,7.31.02,10.94.07,3.62.05,8.11.07,13.45.07,3.71-.18,6.47-.95,8.29-2.31,1.81-1.36,3.08-2.85,3.8-4.48.72-1.63,1.09-3.19,1.09-4.69s.04-2.47.14-2.92c.09,3.08.14,5.84.14,8.29v5.57c0,1.72-.05,2.49-.14,2.31-1.09,0-2.31.04-3.67.14h-9.92c-5.53-.09-11.1-.14-16.71-.14h-28.4c1.63,0,2.85-.75,3.67-2.24.81-1.49,1.4-3.28,1.77-5.37.36-2.08.59-4.19.68-6.32.09-2.13.14-3.87.14-5.23l.27-57.47c-.09-1.81-.2-3.8-.34-5.98-.14-2.17-.46-4.19-.95-6.05-.5-1.86-1.25-3.42-2.24-4.69-1-1.27-2.4-1.9-4.21-1.9h33.49c2.4,0,4.66.02,6.79.07,2.13.05,3.92.07,5.37.07h14.4v16.44c-.09-.45-.14-1.45-.14-2.99s-.41-3.15-1.22-4.82c-.82-1.67-2.22-3.19-4.21-4.55-1.99-1.36-5.03-2.08-9.1-2.17-4.44,0-8.7-.04-12.77-.14h-19.43Z"/>
    <path class="cls-2" d="m777.44,231.3c1.36,1.81,3.35,4.64,5.98,8.49,2.63,3.85,5.68,8.27,9.17,13.25,3.49,4.98,7.2,10.35,11.14,16.1,3.94,5.75,7.86,11.44,11.75,17.05,3.89,5.62,7.63,10.98,11.21,16.1,3.58,5.12,6.68,9.58,9.31,13.38l-.27-64.67c0-1.81-.13-3.87-.41-6.18-.27-2.31-.77-4.46-1.5-6.45-.72-1.99-1.7-3.67-2.92-5.03-1.22-1.36-2.74-2.04-4.55-2.04l18.34-.14c-1.27.09-2.36.75-3.26,1.97-.91,1.22-1.63,2.7-2.17,4.42-.54,1.72-.95,3.51-1.22,5.37-.27,1.86-.41,3.46-.41,4.82l.14,60.33c.09,1.81.27,3.78.54,5.91.27,2.13.75,4.12,1.43,5.98.68,1.86,1.58,3.4,2.72,4.62,1.13,1.22,2.56,1.83,4.28,1.83h-12.36l-58.15-84.37c-.18,1-.32,1.99-.41,2.99-.09,1-.14,1.9-.14,2.72v60.33c.09,1.81.29,3.78.61,5.91.32,2.13.82,4.12,1.49,5.98.68,1.86,1.58,3.4,2.72,4.62,1.13,1.22,2.56,1.83,4.28,1.83l-19.43.14c1.63,0,2.97-.72,4.01-2.17,1.04-1.45,1.85-3.17,2.45-5.16.59-1.99,1.02-4.05,1.29-6.18.27-2.13.45-3.87.54-5.23v-56.79c-.09-1.81-.3-3.85-.61-6.11-.32-2.26-.82-4.39-1.49-6.39-.68-1.99-1.63-3.67-2.85-5.03-1.22-1.36-2.74-2.04-4.55-2.04l13.32-.14Z"/>
    <path class="cls-2" d="m859.5,231.3h62.77v15.08c0-.54-.11-1.47-.34-2.79-.23-1.31-.57-2.65-1.02-4.01-.46-1.36-1.09-2.58-1.9-3.67-.82-1.09-1.86-1.63-3.12-1.63l-21.88-.68-.14,74.18c0,1.81.04,3.8.14,5.98.09,2.17.38,4.19.88,6.05.5,1.86,1.24,3.42,2.24,4.69,1,1.27,2.35,1.9,4.08,1.9h-21.33c1.81,0,3.24-.61,4.28-1.83,1.04-1.22,1.83-2.79,2.38-4.69.54-1.9.88-3.96,1.02-6.18.13-2.22.2-4.32.2-6.32l-.14-73.78-19.97.14c-1.81,0-3.26.63-4.35,1.9-1.09,1.27-1.9,2.67-2.45,4.21-.54,1.54-.91,3.01-1.09,4.42-.18,1.41-.27,2.24-.27,2.51v-15.49Z"/>
    <path class="cls-2" d="m1011.26,231.71c-1.27,0-2.36.77-3.26,2.31-.91,1.54-1.63,3.31-2.17,5.3-.54,1.99-.95,3.99-1.22,5.98-.27,1.99-.41,3.44-.41,4.35v50.68c-.27,4.08-1.27,7.86-2.99,11.34-1.72,3.49-3.99,6.52-6.79,9.1-2.81,2.58-6.05,4.62-9.71,6.11-3.67,1.49-7.54,2.24-11.62,2.24s-8.13-.77-11.89-2.31c-3.76-1.54-7.06-3.67-9.92-6.39-2.85-2.72-5.12-5.89-6.79-9.51-1.68-3.62-2.47-7.47-2.38-11.55v-48.37c0-1.9-.07-3.96-.2-6.18-.14-2.22-.45-4.3-.95-6.25-.5-1.95-1.2-3.58-2.11-4.89-.91-1.31-2.17-1.97-3.8-1.97h19.02c-1.18,0-2.13.82-2.85,2.45-.73,1.63-1.27,3.49-1.63,5.57-.36,2.08-.59,4.12-.68,6.11-.09,1.99-.14,3.35-.14,4.08-.18,3.71-.32,7.66-.41,11.82-.09,3.44-.14,7.34-.14,11.68s.04,8.74.14,13.18c.09,5.07.18,9.71.27,13.93.09,4.21.63,7.77,1.63,10.67.54,1.72,1.56,3.49,3.06,5.3,1.49,1.81,3.28,3.46,5.37,4.96,2.08,1.49,4.37,2.72,6.86,3.67,2.49.95,5,1.43,7.54,1.43,3.8,0,7.38-.68,10.73-2.04,3.35-1.36,6.29-3.24,8.83-5.64,2.54-2.4,4.57-5.21,6.11-8.42,1.54-3.21,2.45-6.68,2.72-10.39l.14-47.28c0-1.72-.14-3.78-.41-6.18-.27-2.4-.75-4.71-1.43-6.93-.68-2.22-1.59-4.1-2.72-5.64-1.13-1.54-2.6-2.31-4.42-2.31h18.61Z"/>
    <path class="cls-2" d="m1030.96,250.59c-.09-1.81-.18-3.83-.27-6.05-.09-2.22-.34-4.3-.75-6.25-.41-1.95-1.11-3.58-2.11-4.89-1-1.31-2.4-1.97-4.21-1.97h36c3.71,0,7.04.61,9.99,1.83,2.94,1.22,5.43,2.92,7.47,5.09s3.6,4.73,4.69,7.68c1.09,2.94,1.63,6.14,1.63,9.58s-.57,6.84-1.7,9.92c-1.13,3.08-2.76,5.77-4.89,8.08-2.13,2.31-4.64,4.14-7.54,5.5-2.9,1.36-6.11,2.04-9.65,2.04h-3.67c2.17,3.26,4.57,6.82,7.2,10.67,2.63,3.85,5.18,7.61,7.68,11.28,2.49,3.67,4.82,7.07,7,10.19s3.89,5.59,5.16,7.4c1,1.36,1.97,2.42,2.92,3.19.95.77,1.83,1.34,2.65,1.7.82.36,1.5.59,2.04.68.54.09.9.14,1.09.14h-11.41c-2.54-3.53-5.19-7.27-7.95-11.21-2.76-3.94-5.46-7.83-8.08-11.68-2.63-3.85-5.14-7.56-7.54-11.14-2.4-3.58-4.51-6.77-6.32-9.58-.54-.72-.91-1.27-1.09-1.63h-12.36v27.17c.09,1.81.18,3.78.27,5.91.09,2.13.36,4.1.82,5.91.45,1.81,1.18,3.31,2.17,4.48,1,1.18,2.35,1.77,4.08,1.77h-19.57c1.54,0,2.72-.7,3.53-2.11.81-1.4,1.4-3.1,1.77-5.09.36-1.99.59-4.03.68-6.11.09-2.08.14-3.8.14-5.16l.14-57.33Zm5.98,28.53h16.58c3.26,0,6.32-.54,9.17-1.63,2.85-1.09,5.32-2.58,7.4-4.48,2.08-1.9,3.74-4.17,4.96-6.79,1.22-2.63,1.83-5.48,1.83-8.56s-.61-6.23-1.83-9.17c-1.22-2.94-2.88-5.55-4.96-7.81-2.08-2.26-4.55-4.1-7.4-5.5-2.85-1.4-5.91-2.11-9.17-2.11h-16.58v46.06Z"/>
    <path class="cls-2" d="m1117.92,233.06c0,.73.02,2.33.07,4.82.04,2.49.07,5.39.07,8.7s.04,6.77.14,10.39c0,6.16.04,13,.14,20.52h6.52l13.04.14h6.52c1.27,0,2.49-.14,3.67-.41,1.18-.27,2.24-.7,3.19-1.29.95-.59,1.72-1.43,2.31-2.51.59-1.09.88-2.49.88-4.21l.14,17.12c-.09-1.36-.43-2.45-1.02-3.26-.59-.82-1.38-1.47-2.38-1.97-1-.5-2.13-.86-3.4-1.09-1.27-.23-2.58-.38-3.94-.48h-6.39l-12.77-.14h-6.39c0,7.7.04,14.72.14,21.06v24.05h8.49c3.67,0,7.31.02,10.94.07,3.62.05,8.11.07,13.45.07,3.71-.18,6.47-.95,8.29-2.31,1.81-1.36,3.08-2.85,3.8-4.48.72-1.63,1.09-3.19,1.09-4.69s.04-2.47.14-2.92c.09,3.08.14,5.84.14,8.29v5.57c0,1.72-.05,2.49-.14,2.31-1.09,0-2.31.04-3.67.14h-9.92c-5.53-.09-11.1-.14-16.71-.14h-28.4c1.63,0,2.85-.75,3.67-2.24.82-1.49,1.4-3.28,1.77-5.37.36-2.08.59-4.19.68-6.32.09-2.13.14-3.87.14-5.23l.27-57.47c-.09-1.81-.2-3.8-.34-5.98s-.45-4.19-.95-6.05c-.5-1.86-1.25-3.42-2.24-4.69-1-1.27-2.4-1.9-4.21-1.9h33.49c2.4,0,4.66.02,6.79.07,2.13.05,3.92.07,5.37.07h14.4v16.44c-.09-.45-.14-1.45-.14-2.99s-.41-3.15-1.22-4.82c-.81-1.67-2.22-3.19-4.21-4.55-1.99-1.36-5.03-2.08-9.1-2.17-4.44,0-8.7-.04-12.77-.14h-19.43Z"/>
    <path class="cls-2" d="m1224.71,284.83c3.35,3.53,5.52,7.36,6.52,11.48,1,4.12.97,8.08-.07,11.89-1.04,3.8-2.99,7.22-5.84,10.26-2.85,3.04-6.45,5.23-10.8,6.59-1.63.54-3.31.93-5.03,1.16-1.72.22-3.49.34-5.3.34-2.9,0-5.77-.25-8.63-.75-2.85-.5-5.46-1.11-7.81-1.83-1.45-.45-2.76-.81-3.94-1.09-1.18-.27-2.22-.41-3.12-.41-1.9,0-2.85.95-2.85,2.85h-.54v-23.1h.54c0,2.45.77,5.32,2.31,8.63,1.54,3.31,3.94,6.14,7.2,8.49,2.72,1.81,5.5,3.15,8.36,4.01,2.85.86,5.64,1.29,8.36,1.29,4.44,0,8.47-1,12.09-2.99,3.62-1.99,6.18-4.71,7.68-8.15,1.5-3.44,1.63-7.43.41-11.96-1.22-4.53-4.42-9.28-9.58-14.27-3.35-2.99-7-5.64-10.94-7.95-3.94-2.31-7.77-4.78-11.48-7.4-9.87-6.97-14.27-14.54-13.18-22.69.72-4.62,3.03-8.54,6.93-11.75,3.89-3.21,8.56-5.23,13.99-6.05,2.35-.36,4.6-.41,6.73-.14,2.13.27,4.08.66,5.84,1.15,1.77.5,3.3,1.02,4.62,1.56,1.31.54,2.29.95,2.92,1.22,1.99.91,3.8,1.63,5.43,2.17,1.63.54,2.85.54,3.67,0,.72-.45,1.09-1.63,1.09-3.53h.68v20.92h-.68c0-.09-.14-.63-.41-1.63-.27-1-.79-2.29-1.56-3.87-.77-1.58-1.81-3.26-3.12-5.03-1.31-1.77-2.99-3.44-5.03-5.03-2.04-1.58-4.46-2.94-7.27-4.08-2.81-1.13-6.11-1.74-9.92-1.83-3.8,0-7.47.91-11,2.72-3.53,1.81-6.07,4.58-7.61,8.29-1,3.17-.91,6.05.27,8.63,1.18,2.58,3.01,5.01,5.5,7.27,2.49,2.26,5.39,4.39,8.7,6.39,3.31,1.99,6.63,3.96,9.99,5.91,3.35,1.95,6.45,3.92,9.31,5.91,2.85,1.99,5.05,4.12,6.59,6.39Z"/>
    <path class="cls-1" d="m426.97,383.89c2.08,2.12,4.87,3.59,7.63,3.59,3.24,0,5.43-2.12,5.43-5.03,0-2.24-1.36-4.07-4.23-4.99l-1.84-.6c-4.95-1.6-6.83-4.43-6.83-8.07,0-4.15,3.36-7.35,7.87-7.35,2.36,0,4.95.8,7.07,2.24l-.6,3.16c-2.28-1.68-4.43-2.52-6.47-2.52-2.84,0-4.79,1.92-4.79,4.47,0,2.28,1.32,3.96,4.83,5.07l1.84.6c4.2,1.32,6.27,4.27,6.27,7.95,0,4.59-3.52,7.95-8.55,7.95-3.32,0-6.19-1.36-8.31-3.16l.68-3.32Z"/>
    <path class="cls-1" d="m474.74,361.64v28.24h-3.04v-12.78h-16.78v12.78h-3.04v-27.68l3.04-.56v12.58h16.78v-12.02l3.04-.56Z"/>
    <path class="cls-1" d="m498.35,361.44c8.03-.16,14.86,6.51,14.7,14.46.16,7.95-6.67,14.62-14.7,14.46-8.03.16-14.86-6.51-14.7-14.46-.16-7.95,6.67-14.62,14.7-14.46Zm0,2.88c-6.27-.12-11.62,5.23-11.5,11.58-.12,6.35,5.23,11.7,11.5,11.58,6.27.12,11.62-5.23,11.51-11.58.12-6.35-5.23-11.71-11.51-11.58Z"/>
    <path class="cls-1" d="m534.5,389.88l-9.51-11.71v11.71h-3.04v-27.96h5.51c5.87,0,9.83,3.68,9.83,8.71,0,4.39-3.16,7.75-7.83,8.39l8.95,10.87h-3.92Zm-9.51-13.18h2.48c4.12,0,6.63-2.48,6.63-6.03s-2.56-5.87-6.63-5.87h-2.48v11.9Z"/>
    <path class="cls-1" d="m554.47,364.79v25.09h-3.04v-25.09h-8.07l.56-2.88h18.06l.56,2.88h-8.07Z"/>
    <path class="cls-1" d="m596.37,387l-.56,2.88h-14.7v-27.68l3.04-.56v25.37h12.22Z"/>
    <path class="cls-1" d="m620.57,387l-.56,2.88h-15.14v-27.96h14.58l.56,2.88h-12.1v9.23h10.03v2.88h-10.03v10.11h12.66Z"/>
    <path class="cls-1" d="m637.75,364.79v25.09h-3.04v-25.09h-8.07l.56-2.88h18.06l.56,2.88h-8.07Z"/>
    <path class="cls-1" d="m687.24,361.64v28.24h-3.04v-12.78h-16.78v12.78h-3.04v-27.68l3.04-.56v12.58h16.78v-12.02l3.04-.56Z"/>
    <path class="cls-1" d="m710.84,361.44c8.03-.16,14.86,6.51,14.7,14.46.16,7.95-6.67,14.62-14.7,14.46-8.03.16-14.86-6.51-14.7-14.46-.16-7.95,6.67-14.62,14.7-14.46Zm0,2.88c-6.27-.12-11.62,5.23-11.5,11.58-.12,6.35,5.23,11.7,11.5,11.58,6.27.12,11.62-5.23,11.5-11.58.12-6.35-5.23-11.71-11.5-11.58Z"/>
    <path class="cls-1" d="m760.29,389.88l-1.76-19.38-10.43,19.85-10.43-19.85-1.76,19.38h-3.04l2.72-29.48,12.5,23.97,12.5-23.97,2.72,29.48h-3.04Z"/>
    <path class="cls-1" d="m788.17,387l-.56,2.88h-15.14v-27.96h14.58l.56,2.88h-12.1v9.23h10.03v2.88h-10.03v10.11h12.66Z"/>
    <path class="cls-1" d="m795.56,383.89c2.08,2.12,4.87,3.59,7.63,3.59,3.24,0,5.43-2.12,5.43-5.03,0-2.24-1.36-4.07-4.23-4.99l-1.84-.6c-4.95-1.6-6.83-4.43-6.83-8.07,0-4.15,3.36-7.35,7.87-7.35,2.36,0,4.95.8,7.07,2.24l-.6,3.16c-2.28-1.68-4.43-2.52-6.47-2.52-2.84,0-4.79,1.92-4.79,4.47,0,2.28,1.32,3.96,4.83,5.07l1.84.6c4.2,1.32,6.27,4.27,6.27,7.95,0,4.59-3.52,7.95-8.55,7.95-3.31,0-6.19-1.36-8.31-3.16l.68-3.32Z"/>
  </g>
</svg>